<svg xmlns="http://www.w3.org/2000/svg" xmlns:xlink="http://www.w3.org/1999/xlink" width="169" height="121.001" viewBox="0 0 169 121.001">
  <defs>
    <clipPath id="clip-path">
      <circle id="Ellipse_1" data-name="Ellipse 1" cx="30" cy="30" r="30" transform="translate(0.481 0.458)" fill="#e7b465" stroke="wheat" stroke-width="1"/>
    </clipPath>
  </defs>
  <g id="Group_86" data-name="Group 86" transform="translate(43 -406.021)">
    <text id="HumpyFarms" transform="translate(-43 520.021)" fill="#e7b465" font-size="27" font-family="SegoeUI-Bold, Segoe UI" font-weight="700"><tspan x="0" y="0">HumpyFarms</tspan></text>
    <g id="Group_84" data-name="Group 84" transform="translate(5.25 407.021)">
      <g id="Mask_Group_1" data-name="Mask Group 1" transform="translate(6.519 6.52)" clip-path="url(#clip-path)">
        <g id="Layer_32" data-name="Layer 32" transform="translate(-50.68 11.605)">
          <path id="Path_1" data-name="Path 1" d="M12.513,25.7a22.438,22.438,0,0,1,16.1-6.808,28.841,28.841,0,0,1,6.217.679l2.109.47a94.423,94.423,0,0,0,20.465,2.249,2.786,2.786,0,0,0,2.6-1.762,10.679,10.679,0,0,1,13.97-5.935c.931-.725,1.9-1.4,2.9-2.05a10.173,10.173,0,0,1,18.116,0,40.558,40.558,0,0,1,10.476,9.747,4.247,4.247,0,0,1-3.4,6.795,13.869,13.869,0,0,1-7.951-2.531c-.153.35-.28.712-.452,1.055l-.358.717a5.512,5.512,0,0,0-.581,2.458,6.73,6.73,0,0,1-1.7,4.447V50.765a7.8,7.8,0,0,1-3.455,6.5A8.751,8.751,0,0,1,82,64.447a7.79,7.79,0,0,1-3.783,3.16,10.627,10.627,0,0,0-.781,3.943v7.527a7.8,7.8,0,0,1,3.4,6.463v1.3a1.7,1.7,0,0,1-1.7,1.7h-5.12c0,.134.024.267.024.4v1.3a1.7,1.7,0,0,1-1.7,1.7H62.152a1.7,1.7,0,0,1-1.7-1.7V72.151a22.55,22.55,0,0,0-1.271-7.4h-.533a28.605,28.605,0,0,0-14.707,4.077,7.167,7.167,0,0,1-8.1-.489l-1.576-1.225a10.571,10.571,0,0,0-.994,4.432v7.527a7.8,7.8,0,0,1,3.4,6.463v1.3a1.7,1.7,0,0,1-1.7,1.7H24.781a1.7,1.7,0,0,1-1.7-1.7V68.754c0-.132-.017-.267-.02-.4-.129.151-.241.314-.374.464a11.88,11.88,0,0,0-3,7.9v5.757a7.8,7.8,0,0,1,3.4,6.463v1.3a1.7,1.7,0,0,1-1.7,1.7H12.891a1.7,1.7,0,0,1-1.675-1.42l-3.4-20.384a1.682,1.682,0,0,1,.01-.612l1.245-6.231A21.6,21.6,0,0,0,7.947,51.026,25.794,25.794,0,0,1,6.1,41.41a22.422,22.422,0,0,1,.666-5.341A18.733,18.733,0,0,0,4.4,45.135a42.213,42.213,0,0,0,.815,8.245A45.438,45.438,0,0,1,6.1,62.292v5.86H2.7v-5.86a42.215,42.215,0,0,0-.815-8.245A45.437,45.437,0,0,1,1,45.135,22.134,22.134,0,0,1,12.513,25.7Zm63.248-8.167a37.141,37.141,0,0,0-6.643,6.795.866.866,0,0,0-.17.51.849.849,0,0,0,.849.849,10.448,10.448,0,0,0,6.5-2.28l.265-.212A23.253,23.253,0,0,1,75.761,17.532ZM85.933,10.4a6.8,6.8,0,0,0-6.795,6.795,19.991,19.991,0,0,0,2.1,8.894l.358.717a8.937,8.937,0,0,1,.939,3.978,3.4,3.4,0,0,0,6.795,0A8.936,8.936,0,0,1,90.27,26.8l.358-.717a19.991,19.991,0,0,0,2.1-8.894A6.8,6.8,0,0,0,85.933,10.4ZM95.569,23.4a10.44,10.44,0,0,0,6.5,2.281.849.849,0,0,0,.849-.849.866.866,0,0,0-.17-.51A37.108,37.108,0,0,0,96.1,17.532a23.254,23.254,0,0,1-.8,5.668ZM70.645,82.474a7.78,7.78,0,0,1,2.415,2.665h4.36a4.417,4.417,0,0,0-2.439-3.567,1.7,1.7,0,0,1-.939-1.529V71.549a13.992,13.992,0,0,1,.455-3.467,11.722,11.722,0,0,1-1.461-.187c-.277.547-.569,1.087-.885,1.615a10.561,10.561,0,0,0-1.507,5.436ZM26.48,68.754V85.139h6.776a4.417,4.417,0,0,0-2.439-3.567,1.7,1.7,0,0,1-.939-1.529V71.549a13.939,13.939,0,0,1,1.668-6.555L27.62,61.937c-.481.831-1,1.636-1.539,2.434a25.93,25.93,0,0,1,.4,4.383ZM11.1,49.766a24.987,24.987,0,0,1,1.3,14.187L11.216,69.88l3.114,18.656h5.337a4.417,4.417,0,0,0-2.439-3.567,1.7,1.7,0,0,1-.939-1.529V76.717A15.289,15.289,0,0,1,20.15,66.557a38.471,38.471,0,0,0,9.727-25.584h3.4a41.856,41.856,0,0,1-4.043,17.919l8.7,6.764a3.847,3.847,0,0,0,4.264.258,31.95,31.95,0,0,1,15.577-4.527,25.989,25.989,0,0,1-2.414-10.824v-2.8h3.4v2.8A22.531,22.531,0,0,0,61.124,60.6,25.989,25.989,0,0,1,63.85,72.151V88.536h6.776a4.416,4.416,0,0,0-2.439-3.567,1.7,1.7,0,0,1-.939-1.529V74.947a13.95,13.95,0,0,1,1.992-7.186c2.031-3.388,3.1-2.482,3.1-6.431V59.344h3.4V61.33c0,2.765-.463.729-1.359,3.345a8.1,8.1,0,0,0,.953.08A4.417,4.417,0,0,0,79.308,62.3a1.7,1.7,0,0,1,.98-.849l.273-.09a5.368,5.368,0,0,0,3.672-5.1,1.7,1.7,0,0,1,.939-1.529,4.417,4.417,0,0,0,2.458-3.968V37.335a6.691,6.691,0,0,1-1.7.241,6.8,6.8,0,0,1-6.795-6.795,5.512,5.512,0,0,0-.581-2.458l-.358-.717c-.17-.34-.3-.7-.452-1.055A13.869,13.869,0,0,1,69.8,29.083a4.247,4.247,0,0,1-3.4-6.795,40.8,40.8,0,0,1,4.5-5.031,7.364,7.364,0,0,0-.948-.065,7.277,7.277,0,0,0-6.795,4.595,6.17,6.17,0,0,1-5.752,3.9,97.837,97.837,0,0,1-21.187-2.324L34.1,22.89a25.353,25.353,0,0,0-5.483-.6A19.144,19.144,0,0,0,9.493,41.41,22.393,22.393,0,0,0,11.1,49.766Z" transform="translate(-1 -6.999)" fill="#e7b465"/>
        </g>
      </g>
      <path id="Path_2" data-name="Path 2" d="M37.25-1A38.26,38.26,0,0,1,52.139,72.493,38.259,38.259,0,0,1,22.361,2.007,38.012,38.012,0,0,1,37.25-1Zm0,73.312A35.062,35.062,0,1,0,2.188,37.25,35.1,35.1,0,0,0,37.25,72.312Z" fill="#e7b465"/>
    </g>
  </g>
</svg>
