<svg id="edit_3_" data-name="edit (3)" xmlns="http://www.w3.org/2000/svg" width="14" height="14" viewBox="0 0 14 14">
  <path id="Path_34102" data-name="Path 34102" d="M12.25,6.708V8.75H10.5A1.75,1.75,0,0,0,8.75,10.5v1.75H2.625a.875.875,0,0,1-.875-.875V2.625a.875.875,0,0,1,.875-.875h5.25A.875.875,0,0,0,8.75.875h0A.875.875,0,0,0,7.875,0H2.625A2.625,2.625,0,0,0,0,2.625v8.75A2.625,2.625,0,0,0,2.625,14H9.616a2.625,2.625,0,0,0,1.856-.768l1.76-1.76A2.625,2.625,0,0,0,14,9.616V6.708a.875.875,0,0,0-.875-.875h0A.875.875,0,0,0,12.25,6.708Z" fill="#d88263"/>
  <path id="Path_34103" data-name="Path 34103" d="M12.463,1.42,5.171,8.712A.583.583,0,0,0,5,9.124v1.75a.583.583,0,0,0,.583.583h1.75a.583.583,0,0,0,.412-.171l7.193-7.193a1.971,1.971,0,0,0,.555-1.849,1.819,1.819,0,0,0-3.032-.824Z" transform="translate(-2.083 -0.374)" fill="#d88263"/>
</svg>
