<svg xmlns="http://www.w3.org/2000/svg" width="87" height="87" viewBox="0 0 87 87">
  <g id="Group_6944" data-name="Group 6944" transform="translate(-144.5 -459.5)">
    <g id="Group_6943" data-name="Group 6943" transform="translate(535 91)">
      <path id="Subtraction_3" data-name="Subtraction 3" d="M-1109.813,139.187a42.73,42.73,0,0,1-16.738-3.379,42.854,42.854,0,0,1-13.668-9.215,42.857,42.857,0,0,1-9.215-13.668,42.733,42.733,0,0,1-3.379-16.738,42.733,42.733,0,0,1,3.379-16.738,42.857,42.857,0,0,1,9.215-13.668,42.856,42.856,0,0,1,13.668-9.215,42.731,42.731,0,0,1,16.738-3.379,42.731,42.731,0,0,1,16.738,3.379,42.856,42.856,0,0,1,13.668,9.215,42.859,42.859,0,0,1,9.215,13.668,42.733,42.733,0,0,1,3.379,16.738,42.733,42.733,0,0,1-3.379,16.738,42.857,42.857,0,0,1-9.215,13.668,42.857,42.857,0,0,1-13.668,9.215A42.73,42.73,0,0,1-1109.813,139.187Zm0-73a30.034,30.034,0,0,0-30,30,30.034,30.034,0,0,0,30,30,30.034,30.034,0,0,0,30-30A30.034,30.034,0,0,0-1109.813,66.187Z" transform="translate(762.813 315.813)" fill="#e7b465" stroke="rgba(0,0,0,0)" stroke-width="1"/>
      <g id="Group_6945" data-name="Group 6945" transform="translate(-6.735 -6.667)">
        <g id="Group_6940" data-name="Group 6940" transform="translate(-332.448 380.58)">
          <path id="Path_31902" data-name="Path 31902" d="M-339.6,387.035a.218.218,0,0,1-.021-.17l1.374-5.234-1.865.79a.231.231,0,0,1-.156.019.219.219,0,0,1-.134-.136l-.162-.372a.219.219,0,0,1-.012-.143.211.211,0,0,1,.14-.153l2.449-1.035a.466.466,0,0,1,.261,0l.477.126a.213.213,0,0,1,.138.1.215.215,0,0,1,.021.169l-1.6,6.114a.212.212,0,0,1-.1.139.215.215,0,0,1-.169.021l-.5-.13A.216.216,0,0,1-339.6,387.035Z" transform="translate(340.58 -380.58)" fill="#1a4d38"/>
          <path id="Path_31903" data-name="Path 31903" d="M-337.492,387.023a3.132,3.132,0,0,1,.186-1.993q.094-.243.325-.776c.157-.367.275-.632.353-.795a3.036,3.036,0,0,1,1.315-1.491,2.211,2.211,0,0,1,1.967.053,2.225,2.225,0,0,1,1.4,1.4,3.04,3.04,0,0,1-.181,1.98c-.13.337-.239.605-.326.807s-.2.451-.35.765a3.123,3.123,0,0,1-1.322,1.5,2.21,2.21,0,0,1-1.973-.06A2.2,2.2,0,0,1-337.492,387.023Zm2.919.616a2.278,2.278,0,0,0,.9-1.1c.159-.338.273-.583.339-.738s.169-.409.3-.734a2.336,2.336,0,0,0,.185-1.4,1.288,1.288,0,0,0-.818-.888,1.284,1.284,0,0,0-1.2.018,2.3,2.3,0,0,0-.9,1.1l-.323.725-.313.749a2.278,2.278,0,0,0-.18,1.406,1.3,1.3,0,0,0,.817.878A1.3,1.3,0,0,0-334.573,387.639Z" transform="translate(341.204 -380.334)" fill="#1a4d38"/>
          <path id="Path_31904" data-name="Path 31904" d="M-333.045,389.03a3.124,3.124,0,0,1,.539-1.928q.136-.223.457-.707c.221-.331.384-.571.49-.719A3.033,3.033,0,0,1-330,384.445a2.208,2.208,0,0,1,1.924.4,2.222,2.222,0,0,1,1.126,1.625,3.047,3.047,0,0,1-.53,1.916q-.284.46-.466.734t-.482.69A3.126,3.126,0,0,1-330,391.057a2.213,2.213,0,0,1-1.93-.412A2.2,2.2,0,0,1-333.045,389.03Zm2.76,1.127a2.276,2.276,0,0,0,1.08-.918q.326-.457.466-.666c.1-.15.24-.373.423-.67a2.33,2.33,0,0,0,.432-1.349,1.288,1.288,0,0,0-.645-1.02,1.286,1.286,0,0,0-1.186-.2,2.306,2.306,0,0,0-1.081.918l-.446.655-.441.681a2.269,2.269,0,0,0-.429,1.351,1.3,1.3,0,0,0,.646,1.01A1.3,1.3,0,0,0-330.285,390.157Z" transform="translate(342.145 -379.793)" fill="#1a4d38"/>
          <path id="Path_31905" data-name="Path 31905" d="M-329.56,391.993a.181.181,0,0,1,.058-.14.161.161,0,0,1,.1-.048l7.815-1.09a.572.572,0,0,1,.2,0,.336.336,0,0,1,.153.1l.227.225a.2.2,0,0,1,.069.143.191.191,0,0,1-.062.138.168.168,0,0,1-.1.048l-7.807,1.1a.517.517,0,0,1-.2,0,.356.356,0,0,1-.161-.105l-.226-.225A.206.206,0,0,1-329.56,391.993Zm2.551-2.614a1.315,1.315,0,0,1,.366-.937c.073-.082.17-.185.294-.309s.24-.237.326-.314a1.38,1.38,0,0,1,.942-.406,1.37,1.37,0,0,1,.965.46,1.371,1.371,0,0,1,.468.963,1.393,1.393,0,0,1-.4.945c-.173.192-.283.313-.333.362s-.141.133-.286.261a1.277,1.277,0,0,1-.931.376,1.426,1.426,0,0,1-.941-.466A1.4,1.4,0,0,1-327.009,389.379Zm.158,4.967a1.38,1.38,0,0,1,.38-.951c.072-.083.169-.186.292-.309s.24-.237.327-.315a1.425,1.425,0,0,1,.948-.4,1.354,1.354,0,0,1,.958.455,1.366,1.366,0,0,1,.467.962,1.421,1.421,0,0,1-.394.951c-.155.174-.256.286-.307.336s-.15.143-.313.289a1.384,1.384,0,0,1-.952.382,1.377,1.377,0,0,1-.954-.452A1.353,1.353,0,0,1-326.85,394.346Zm1.234-4.244a.928.928,0,0,0,.481-.217c.173-.155.273-.246.3-.274s.128-.139.265-.295a.845.845,0,0,0,.221-.489.623.623,0,0,0-.216-.5.615.615,0,0,0-.5-.21.86.86,0,0,0-.484.227c-.077.069-.173.159-.286.274s-.2.208-.279.295a.91.91,0,0,0-.217.486.6.6,0,0,0,.214.492A.607.607,0,0,0-325.616,390.1Zm.172,4.953a.934.934,0,0,0,.482-.216c.172-.155.272-.246.3-.274s.129-.139.265-.295a.867.867,0,0,0,.225-.486.618.618,0,0,0-.22-.5.607.607,0,0,0-.5-.21.859.859,0,0,0-.484.227c-.077.068-.173.159-.285.274s-.2.208-.28.294a.929.929,0,0,0-.214.483.6.6,0,0,0,.21.5A.6.6,0,0,0-325.444,395.055Z" transform="translate(342.872 -379.158)" fill="#1a4d38"/>
          <path id="Path_31906" data-name="Path 31906" d="M-323.909,397.5a2.757,2.757,0,0,1,1.372-1.622c.166-.1.4-.239.709-.414s.545-.307.71-.394a2.731,2.731,0,0,1,2.1-.329,2.69,2.69,0,0,1,1.55,1.342,2.673,2.673,0,0,1,.36,2.008,2.73,2.73,0,0,1-1.353,1.638c-.318.2-.55.336-.695.419s-.382.21-.724.39a2.755,2.755,0,0,1-2.095.354,2.7,2.7,0,0,1-1.54-1.364A2.72,2.72,0,0,1-323.909,397.5Zm2.114,2.45a2.088,2.088,0,0,0,1.479-.275q.513-.27.681-.366t.662-.4a2.07,2.07,0,0,0,.987-1.135,1.628,1.628,0,0,0-.2-1.283,1.649,1.649,0,0,0-1.009-.834,2.076,2.076,0,0,0-1.481.272c-.165.087-.39.211-.676.374s-.5.29-.667.391a2.061,2.061,0,0,0-.987,1.136,1.639,1.639,0,0,0,.2,1.291A1.627,1.627,0,0,0-321.8,399.953Z" transform="translate(344.034 -377.652)" fill="#1a4d38"/>
          <path id="Path_31907" data-name="Path 31907" d="M-322.07,401.744a.219.219,0,0,1,.126-.117l4.264-1.646a.241.241,0,0,1,.176,0,.208.208,0,0,1,.121.124l.159.414a.221.221,0,0,1,0,.178.224.224,0,0,1-.129.123l-.4.153a1.45,1.45,0,0,1,1.1,1.024l.135.353a.214.214,0,0,1,0,.17.214.214,0,0,1-.126.116l-.37.143a.2.2,0,0,1-.167,0,.226.226,0,0,1-.111-.128l-.209-.541a1.1,1.1,0,0,0-.581-.656,1.123,1.123,0,0,0-.878.018l-2.65,1.024a.21.21,0,0,1-.173-.006.23.23,0,0,1-.118-.13l-.17-.442A.214.214,0,0,1-322.07,401.744Z" transform="translate(344.426 -376.548)" fill="#1a4d38"/>
          <path id="Path_31908" data-name="Path 31908" d="M-322.482,405.345a1.769,1.769,0,0,1,.429-.807,1.414,1.414,0,0,1,.541-.356.183.183,0,0,1,.174.023.227.227,0,0,1,.1.139l.108.452a.235.235,0,0,1-.008.151.319.319,0,0,1-.133.13,1.293,1.293,0,0,0-.434.5,1.246,1.246,0,0,0-.03.855,1.549,1.549,0,0,0,.539.956,1.409,1.409,0,0,0,1.127.08l.639-.152a1.792,1.792,0,0,1-.64-.5,2.068,2.068,0,0,1-.4-.849,1.822,1.822,0,0,1,.281-1.642,2.748,2.748,0,0,1,1.488-.9l.261-.073.256-.051a2.767,2.767,0,0,1,1.738.144,1.81,1.81,0,0,1,1,1.332,1.889,1.889,0,0,1-.358,1.714l.4-.1a.238.238,0,0,1,.175.024.21.21,0,0,1,.1.139l.1.432a.231.231,0,0,1-.028.176.233.233,0,0,1-.145.1l-4.56,1.081a1.989,1.989,0,0,1-2.7-1.692A2.651,2.651,0,0,1-322.482,405.345Zm3.467,1.491a1.793,1.793,0,0,0,1.092.12c.058-.007.168-.03.331-.07s.262-.065.318-.085a1.8,1.8,0,0,0,.923-.592,1.182,1.182,0,0,0,.191-1.073,1.147,1.147,0,0,0-.643-.871,2.013,2.013,0,0,0-1.169-.07l-.246.048-.252.07a2.018,2.018,0,0,0-1.007.587,1.141,1.141,0,0,0-.188,1.068A1.184,1.184,0,0,0-319.015,406.835Z" transform="translate(344.331 -375.871)" fill="#1a4d38"/>
          <path id="Path_31909" data-name="Path 31909" d="M-320.05,409.032a1.62,1.62,0,0,1,.48-.679,1.25,1.25,0,0,1,.72-.289,1.275,1.275,0,0,1,1.084.452,2.954,2.954,0,0,1,.637,1.383l.3,1.422.28-.021q.982-.069.9-1.2a1.243,1.243,0,0,0-.228-.68,1.219,1.219,0,0,0-.448-.376.286.286,0,0,1-.13-.063.177.177,0,0,1-.047-.118l-.029-.414a.2.2,0,0,1,.052-.153.2.2,0,0,1,.145-.074,1.027,1.027,0,0,1,.541.18,1.68,1.68,0,0,1,.556.6,2.381,2.381,0,0,1,.294,1.055,2.051,2.051,0,0,1-.395,1.589,1.785,1.785,0,0,1-1.225.562l-3.123.222a.217.217,0,0,1-.164-.051.219.219,0,0,1-.074-.155l-.031-.443a.216.216,0,0,1,.051-.164.217.217,0,0,1,.155-.074l.414-.029a1.678,1.678,0,0,1-.564-.58,2.21,2.21,0,0,1-.285-1.016A2,2,0,0,1-320.05,409.032Zm1.09,2.039a1.625,1.625,0,0,0,1.209.315l.271-.019-.244-1.107a2.587,2.587,0,0,0-.4-1.007.67.67,0,0,0-.6-.307.67.67,0,0,0-.57.361,1.356,1.356,0,0,0-.153.766A1.379,1.379,0,0,0-318.96,411.071Z" transform="translate(344.822 -374.863)" fill="#1a4d38"/>
          <path id="Path_31910" data-name="Path 31910" d="M-319.823,412.7a.221.221,0,0,1,.164-.048l4.563.413a.211.211,0,0,1,.152.077.211.211,0,0,1,.048.164l-.041.452a.214.214,0,0,1-.076.153.213.213,0,0,1-.165.048l-.423-.039a1.965,1.965,0,0,1,.489.709,2.089,2.089,0,0,1,.106.965,1.814,1.814,0,0,1-.721,1.386,2.316,2.316,0,0,1-1.621.372l-2.714-.245a.212.212,0,0,1-.152-.076.213.213,0,0,1-.048-.164l.043-.482a.212.212,0,0,1,.076-.152.214.214,0,0,1,.165-.048l2.666.24a1.555,1.555,0,0,0,1.088-.236,1.216,1.216,0,0,0,.461-.924,1.255,1.255,0,0,0-.292-1,1.484,1.484,0,0,0-1.022-.452l-2.666-.241a.208.208,0,0,1-.153-.077.21.21,0,0,1-.048-.163l.043-.482A.218.218,0,0,1-319.823,412.7Z" transform="translate(344.806 -373.908)" fill="#1a4d38"/>
          <path id="Path_31911" data-name="Path 31911" d="M-320.439,417.347a.22.22,0,0,1,.169-.029l4.479.954a.216.216,0,0,1,.144.094.215.215,0,0,1,.028.169l-.1.454a.216.216,0,0,1-.094.143.21.21,0,0,1-.169.028l-4.48-.953a.214.214,0,0,1-.143-.094.21.21,0,0,1-.028-.169l.1-.454A.214.214,0,0,1-320.439,417.347Zm5.848,1.166a.215.215,0,0,1,.169-.029l.51.109a.24.24,0,0,1,.149.1.211.211,0,0,1,.033.17l-.127.6a.227.227,0,0,1-.1.147.229.229,0,0,1-.175.031l-.51-.109a.209.209,0,0,1-.143-.1.234.234,0,0,1-.027-.174l.127-.6A.216.216,0,0,1-314.591,418.513Z" transform="translate(344.728 -372.939)" fill="#1a4d38"/>
          <path id="Path_31912" data-name="Path 31912" d="M-320.381,419.494a2.345,2.345,0,0,1,1.75-.074l.371.114.364.132a2.345,2.345,0,0,1,1.357,1.109,2.189,2.189,0,0,1,.043,1.72,2.542,2.542,0,0,1-.611,1.039,1.832,1.832,0,0,1-.815.488,1.491,1.491,0,0,1-.777.011.174.174,0,0,1-.129-.1.247.247,0,0,1,0-.174l.146-.44a.23.23,0,0,1,.082-.126.393.393,0,0,1,.178-.044,1.253,1.253,0,0,0,.774-.231,1.326,1.326,0,0,0,.426-.652,1.254,1.254,0,0,0-.051-1.021,1.7,1.7,0,0,0-.957-.721l-.327-.12-.315-.094a1.713,1.713,0,0,0-1.2,0,1.261,1.261,0,0,0-.651.792,1.334,1.334,0,0,0-.049.778,1.262,1.262,0,0,0,.481.649.477.477,0,0,1,.121.143.212.212,0,0,1,0,.151l-.146.44a.231.231,0,0,1-.112.136.185.185,0,0,1-.169,0,1.53,1.53,0,0,1-.611-.474,1.823,1.823,0,0,1-.365-.876,2.524,2.524,0,0,1,.135-1.2A2.19,2.19,0,0,1-320.381,419.494Z" transform="translate(344.526 -372.528)" fill="#1a4d38"/>
        </g>
        <g id="Group_6941" data-name="Group 6941" transform="translate(-369.003 439.377)">
          <path id="Path_31913" data-name="Path 31913" d="M-327.8,431.174a.215.215,0,0,1,.158.066l3.873,3.78.234-2.013a.218.218,0,0,1,.06-.144.208.208,0,0,1,.184-.049l.4.042a.231.231,0,0,1,.13.06.21.21,0,0,1,.064.2l-.309,2.642a.453.453,0,0,1-.127.227l-.344.353a.217.217,0,0,1-.157.07.211.211,0,0,1-.157-.066l-4.524-4.414a.222.222,0,0,1-.07-.157.216.216,0,0,1,.066-.158l.359-.366A.208.208,0,0,1-327.8,431.174Z" transform="translate(379.671 -428.852)" fill="#1a4d38"/>
          <path id="Path_31914" data-name="Path 31914" d="M-328.684,433.051a3.126,3.126,0,0,1,1.642,1.146c.11.135.28.356.515.666s.412.552.516.7a3.045,3.045,0,0,1,.646,1.88,2.209,2.209,0,0,1-1.018,1.684,2.223,2.223,0,0,1-1.9.525,3.042,3.042,0,0,1-1.633-1.136c-.227-.28-.408-.507-.54-.682s-.292-.4-.49-.682a3.132,3.132,0,0,1-.655-1.892,2.208,2.208,0,0,1,1.027-1.685A2.206,2.206,0,0,1-328.684,433.051Zm-1.977,2.234a2.288,2.288,0,0,0,.51,1.323q.321.458.474.66c.109.143.273.35.493.62a2.328,2.328,0,0,0,1.129.854,1.29,1.29,0,0,0,1.178-.271,1.284,1.284,0,0,0,.576-1.055,2.293,2.293,0,0,0-.509-1.323l-.469-.638-.5-.643a2.278,2.278,0,0,0-1.134-.85,1.3,1.3,0,0,0-1.167.274A1.311,1.311,0,0,0-330.661,435.285Z" transform="translate(379.001 -428.473)" fill="#1a4d38"/>
          <path id="Path_31915" data-name="Path 31915" d="M-332.652,435.9a3.124,3.124,0,0,1,1.41,1.422c.086.152.214.4.389.745s.308.617.383.782a3.046,3.046,0,0,1,.3,1.965,2.206,2.206,0,0,1-1.3,1.474,2.227,2.227,0,0,1-1.969.176,3.051,3.051,0,0,1-1.4-1.407c-.174-.316-.31-.574-.408-.768s-.216-.443-.362-.76a3.124,3.124,0,0,1-.3-1.979,2.207,2.207,0,0,1,1.312-1.474A2.195,2.195,0,0,1-332.652,435.9ZM-335,437.748a2.269,2.269,0,0,0,.265,1.393c.157.339.273.585.349.733s.205.394.372.7a2.332,2.332,0,0,0,.96,1.041,1.282,1.282,0,0,0,1.206-.056,1.282,1.282,0,0,0,.756-.934,2.3,2.3,0,0,0-.262-1.393l-.35-.711-.374-.721a2.27,2.27,0,0,0-.963-1.04,1.292,1.292,0,0,0-1.2.063A1.3,1.3,0,0,0-335,437.748Z" transform="translate(378.092 -427.901)" fill="#1a4d38"/>
          <path id="Path_31916" data-name="Path 31916" d="M-339.978,438.634a1.39,1.39,0,0,1,.639.8c.036.105.077.24.124.408s.087.325.112.44a1.413,1.413,0,0,1-.123,1.022,1.348,1.348,0,0,1-.869.608,1.363,1.363,0,0,1-1.067-.069,1.426,1.426,0,0,1-.632-.812c-.075-.22-.122-.365-.141-.432s-.05-.2-.1-.414a1.378,1.378,0,0,1,.138-1.017,1.383,1.383,0,0,1,.865-.606A1.357,1.357,0,0,1-339.978,438.634Zm-1.312.872a.932.932,0,0,0-.049.525c.049.227.081.359.091.4.016.056.057.181.126.376a.859.859,0,0,0,.312.436.623.623,0,0,0,.547.058.609.609,0,0,0,.43-.331.858.858,0,0,0,.041-.533c-.021-.1-.053-.228-.1-.384s-.081-.279-.117-.389a.929.929,0,0,0-.314-.424.592.592,0,0,0-.534-.062A.607.607,0,0,0-341.29,439.506Zm4.7-2.065a.176.176,0,0,1,.093.12.165.165,0,0,1-.007.112l-2.915,7.331a.547.547,0,0,1-.1.178.355.355,0,0,1-.163.086l-.307.085a.2.2,0,0,1-.158-.01.192.192,0,0,1-.089-.122.158.158,0,0,1,.01-.112l2.9-7.329a.572.572,0,0,1,.1-.178.384.384,0,0,1,.172-.088l.307-.085A.2.2,0,0,1-336.593,437.442Zm1.014,3.509a1.315,1.315,0,0,1,.633.782c.035.1.077.239.124.407s.087.327.111.44a1.384,1.384,0,0,1-.112,1.02,1.366,1.366,0,0,1-.878.611,1.367,1.367,0,0,1-1.068-.07,1.381,1.381,0,0,1-.622-.813c-.082-.246-.133-.4-.151-.47s-.046-.188-.086-.378a1.268,1.268,0,0,1,.135-1,1.423,1.423,0,0,1,.869-.588A1.414,1.414,0,0,1-335.58,440.951Zm-1.318.854a.928.928,0,0,0-.05.524c.05.227.08.359.089.4.017.054.058.181.127.376a.838.838,0,0,0,.315.434.631.631,0,0,0,.544.06.612.612,0,0,0,.429-.331.862.862,0,0,0,.042-.534c-.021-.1-.054-.228-.1-.384s-.081-.278-.12-.388a.907.907,0,0,0-.314-.43.606.606,0,0,0-.534-.057A.6.6,0,0,0-336.9,441.805Z" transform="translate(376.825 -427.553)" fill="#1a4d38"/>
          <path id="Path_31917" data-name="Path 31917" d="M-344.572,439.585a2.751,2.751,0,0,1,.731,1.994q.011.29.012.821t-.01.813a2.729,2.729,0,0,1-.751,1.986,2.681,2.681,0,0,1-1.932.684,2.671,2.671,0,0,1-1.923-.678,2.727,2.727,0,0,1-.756-1.987c-.015-.373-.022-.643-.022-.811s.006-.436.019-.821a2.753,2.753,0,0,1,.727-2,2.7,2.7,0,0,1,1.946-.664A2.715,2.715,0,0,1-344.572,439.585Zm-3.175.627a2.085,2.085,0,0,0-.49,1.422c-.013.387-.019.644-.019.773s.007.4.022.772a2.067,2.067,0,0,0,.5,1.422,1.634,1.634,0,0,0,1.213.461,1.642,1.642,0,0,0,1.221-.465,2.067,2.067,0,0,0,.5-1.422q.007-.281.007-.773c0-.323,0-.58-.008-.773a2.093,2.093,0,0,0-.5-1.421,1.641,1.641,0,0,0-1.224-.461A1.628,1.628,0,0,0-347.747,440.212Z" transform="translate(375.336 -427.24)" fill="#1a4d38"/>
          <path id="Path_31918" data-name="Path 31918" d="M-349.536,438.92a.212.212,0,0,1,.039.165l-.674,4.522a.232.232,0,0,1-.086.153.218.218,0,0,1-.168.043l-.44-.065a.22.22,0,0,1-.152-.092.231.231,0,0,1-.045-.173l.064-.42a1.449,1.449,0,0,1-1.435.451l-.373-.056a.218.218,0,0,1-.147-.086.218.218,0,0,1-.039-.167l.058-.393a.2.2,0,0,1,.086-.144.226.226,0,0,1,.165-.034l.574.086a1.092,1.092,0,0,0,.856-.18,1.125,1.125,0,0,0,.419-.773l.419-2.81a.2.2,0,0,1,.091-.147.23.23,0,0,1,.172-.039l.469.07A.212.212,0,0,1-349.536,438.92Z" transform="translate(374.552 -427.275)" fill="#1a4d38"/>
          <path id="Path_31919" data-name="Path 31919" d="M-352.094,436.907a1.756,1.756,0,0,1,.489.772,1.391,1.391,0,0,1,.042.646.185.185,0,0,1-.105.14.225.225,0,0,1-.173.021l-.445-.129a.248.248,0,0,1-.128-.083.331.331,0,0,1-.048-.18,1.279,1.279,0,0,0-.215-.621,1.25,1.25,0,0,0-.731-.449,1.543,1.543,0,0,0-1.1,0,1.414,1.414,0,0,0-.627.94l-.182.632a1.8,1.8,0,0,1,.754-.308,2.046,2.046,0,0,1,.934.076,1.825,1.825,0,0,1,1.289,1.055,2.744,2.744,0,0,1,.05,1.741l-.066.263-.082.248a2.755,2.755,0,0,1-.985,1.439,1.806,1.806,0,0,1-1.65.209,1.885,1.885,0,0,1-1.313-1.159l-.116.4a.232.232,0,0,1-.106.14.2.2,0,0,1-.173.021l-.425-.124a.233.233,0,0,1-.14-.11.228.228,0,0,1-.018-.178l1.312-4.5a1.99,1.99,0,0,1,2.805-1.508A2.654,2.654,0,0,1-352.094,436.907Zm-3.009,2.278a1.778,1.778,0,0,0-.641.889,3.2,3.2,0,0,0-.105.324c-.045.153-.072.26-.083.318a1.8,1.8,0,0,0,.059,1.093,1.184,1.184,0,0,0,.838.7,1.147,1.147,0,0,0,1.074-.129,2.006,2.006,0,0,0,.639-.982l.08-.238.065-.255a2.038,2.038,0,0,0-.013-1.166,1.142,1.142,0,0,0-.836-.691A1.184,1.184,0,0,0-355.1,439.185Z" transform="translate(373.641 -427.818)" fill="#1a4d38"/>
          <path id="Path_31920" data-name="Path 31920" d="M-356.771,437.216a1.64,1.64,0,0,1,.354.753,1.249,1.249,0,0,1-.105.769,1.275,1.275,0,0,1-.929.719,2.935,2.935,0,0,1-1.516-.13l-1.387-.437-.122.252q-.424.89.6,1.377a1.25,1.25,0,0,0,.706.139,1.241,1.241,0,0,0,.547-.2.274.274,0,0,1,.118-.083.186.186,0,0,1,.127.017l.373.18a.206.206,0,0,1,.109.121.207.207,0,0,1-.007.163,1.024,1.024,0,0,1-.424.382,1.689,1.689,0,0,1-.8.185,2.392,2.392,0,0,1-1.062-.266,2.058,2.058,0,0,1-1.186-1.129,1.777,1.777,0,0,1,.117-1.341l1.349-2.826a.214.214,0,0,1,.126-.117.216.216,0,0,1,.17.012l.4.191a.225.225,0,0,1,.117.126.211.211,0,0,1-.012.17l-.179.376a1.656,1.656,0,0,1,.783-.2,2.232,2.232,0,0,1,1.024.254A2.018,2.018,0,0,1-356.771,437.216Zm-2.311-.059a1.627,1.627,0,0,0-.872.9l-.117.245,1.082.333a2.58,2.58,0,0,0,1.074.153.67.67,0,0,0,.561-.368.669.669,0,0,0-.031-.674,1.333,1.333,0,0,0-.591-.511A1.368,1.368,0,0,0-359.082,437.156Z" transform="translate(372.791 -427.906)" fill="#1a4d38"/>
          <path id="Path_31921" data-name="Path 31921" d="M-360,435.647a.218.218,0,0,1-.039.166l-2.613,3.764a.217.217,0,0,1-.144.094.219.219,0,0,1-.167-.039l-.373-.259a.225.225,0,0,1-.094-.143.218.218,0,0,1,.039-.168l.243-.349a1.955,1.955,0,0,1-.859.075,2.1,2.1,0,0,1-.892-.384,1.814,1.814,0,0,1-.848-1.312,2.321,2.321,0,0,1,.477-1.593l1.555-2.238a.216.216,0,0,1,.142-.1.208.208,0,0,1,.166.04l.4.275a.215.215,0,0,1,.094.143.212.212,0,0,1-.04.167l-1.526,2.2a1.55,1.55,0,0,0-.333,1.064,1.22,1.22,0,0,0,.575.858,1.262,1.262,0,0,0,1.011.238,1.493,1.493,0,0,0,.9-.666l1.527-2.2a.21.21,0,0,1,.143-.1.215.215,0,0,1,.167.039l.4.277A.214.214,0,0,1-360,435.647Z" transform="translate(371.897 -428.439)" fill="#1a4d38"/>
          <path id="Path_31922" data-name="Path 31922" d="M-367.763,437.021a.218.218,0,0,1-.059.162l-.347.39a.237.237,0,0,1-.156.082.214.214,0,0,1-.164-.056l-.455-.4a.22.22,0,0,1-.077-.16.228.228,0,0,1,.058-.169l.347-.389a.214.214,0,0,1,.157-.075.235.235,0,0,1,.164.062l.455.4A.215.215,0,0,1-367.763,437.021Zm3.9-4.507a.222.222,0,0,1-.059.161l-3.042,3.425a.216.216,0,0,1-.153.076.214.214,0,0,1-.161-.058l-.348-.308a.218.218,0,0,1-.077-.153.213.213,0,0,1,.059-.159l3.043-3.425a.217.217,0,0,1,.153-.078.218.218,0,0,1,.159.059l.348.308A.218.218,0,0,1-363.86,432.514Z" transform="translate(371.218 -428.682)" fill="#1a4d38"/>
          <path id="Path_31923" data-name="Path 31923" d="M-365.636,431.693a2.346,2.346,0,0,1-.8,1.56l-.281.266-.295.251a2.341,2.341,0,0,1-1.634.632,2.187,2.187,0,0,1-1.517-.813,2.544,2.544,0,0,1-.6-1.044,1.82,1.82,0,0,1-.022-.95,1.492,1.492,0,0,1,.374-.681.166.166,0,0,1,.153-.06.245.245,0,0,1,.153.083l.309.344a.223.223,0,0,1,.069.134.4.4,0,0,1-.051.175,1.256,1.256,0,0,0-.181.788,1.341,1.341,0,0,0,.356.693,1.245,1.245,0,0,0,.912.458,1.693,1.693,0,0,0,1.1-.475l.265-.225.239-.227a1.715,1.715,0,0,0,.6-1.043,1.26,1.26,0,0,0-.366-.958,1.347,1.347,0,0,0-.652-.428,1.262,1.262,0,0,0-.8.1.474.474,0,0,1-.182.035.211.211,0,0,1-.13-.079l-.31-.345a.234.234,0,0,1-.062-.164.179.179,0,0,1,.078-.15,1.517,1.517,0,0,1,.714-.3,1.82,1.82,0,0,1,.941.115,2.53,2.53,0,0,1,.98.711A2.2,2.2,0,0,1-365.636,431.693Z" transform="translate(370.84 -429.252)" fill="#1a4d38"/>
        </g>
        <g id="Group_6942" data-name="Group 6942" transform="translate(-379.671 381.205)">
          <path id="Path_31924" data-name="Path 31924" d="M-371.822,419.778a.214.214,0,0,1-.133.109l-5.172,1.6,1.657,1.167a.205.205,0,0,1,.1.12.217.217,0,0,1-.044.186l-.231.336a.246.246,0,0,1-.115.085.21.21,0,0,1-.2-.037l-2.173-1.533a.443.443,0,0,1-.139-.22l-.146-.47a.224.224,0,0,1,.012-.173.216.216,0,0,1,.134-.105l6.038-1.87a.213.213,0,0,1,.17.012.216.216,0,0,1,.108.134l.152.489A.217.217,0,0,1-371.822,419.778Z" transform="translate(379.929 -373.222)" fill="#1a4d38"/>
          <path id="Path_31925" data-name="Path 31925" d="M-372.876,418.3a3.129,3.129,0,0,1-1.79.9q-.256.051-.83.135-.591.091-.861.12a3.029,3.029,0,0,1-1.959-.329,2.209,2.209,0,0,1-.994-1.7,2.218,2.218,0,0,1,.447-1.924,3.037,3.037,0,0,1,1.775-.893c.356-.068.641-.117.858-.15s.489-.068.835-.105a3.119,3.119,0,0,1,1.975.325,2.219,2.219,0,0,1,.991,1.708A2.2,2.2,0,0,1-372.876,418.3Zm-1.018-2.8a2.279,2.279,0,0,0-1.406-.184c-.371.044-.639.076-.806.1s-.439.074-.78.138a2.325,2.325,0,0,0-1.29.586,1.282,1.282,0,0,0-.323,1.162,1.284,1.284,0,0,0,.651,1.011,2.288,2.288,0,0,0,1.4.184l.786-.11.8-.129a2.283,2.283,0,0,0,1.289-.59,1.3,1.3,0,0,0,.313-1.156A1.3,1.3,0,0,0-373.894,415.5Z" transform="translate(379.738 -374.186)" fill="#1a4d38"/>
          <path id="Path_31926" data-name="Path 31926" d="M-373.494,413.474a3.141,3.141,0,0,1-1.921.563c-.174,0-.454,0-.841-.017s-.689-.024-.869-.035a3.038,3.038,0,0,1-1.87-.675,2.211,2.211,0,0,1-.675-1.847,2.222,2.222,0,0,1,.784-1.813,3.035,3.035,0,0,1,1.907-.563c.36,0,.651,0,.87.007s.493.021.84.045a3.119,3.119,0,0,1,1.884.675,2.206,2.206,0,0,1,.669,1.857A2.2,2.2,0,0,1-373.494,413.474Zm-.5-2.94a2.275,2.275,0,0,0-1.351-.43c-.372-.025-.644-.04-.811-.045s-.445-.006-.792,0a2.329,2.329,0,0,0-1.374.347,1.28,1.28,0,0,0-.525,1.085,1.289,1.289,0,0,0,.459,1.111,2.3,2.3,0,0,0,1.352.434l.791.031.812.016a2.27,2.27,0,0,0,1.374-.35,1.3,1.3,0,0,0,.515-1.082A1.3,1.3,0,0,0-374,410.533Z" transform="translate(379.671 -375.276)" fill="#1a4d38"/>
          <path id="Path_31927" data-name="Path 31927" d="M-376.334,408.589a1.314,1.314,0,0,1-.989.186c-.108-.018-.246-.048-.417-.087s-.329-.077-.44-.111a1.377,1.377,0,0,1-.842-.585,1.372,1.372,0,0,1-.118-1.063,1.38,1.38,0,0,1,.57-.906,1.394,1.394,0,0,1,1.012-.158c.255.045.416.075.486.092s.187.049.372.105a1.269,1.269,0,0,1,.811.593,1.422,1.422,0,0,1,.1,1.045A1.4,1.4,0,0,1-376.334,408.589Zm-.121-1.564a.947.947,0,0,0-.439-.294c-.223-.065-.354-.1-.391-.11-.057-.011-.187-.036-.391-.069a.845.845,0,0,0-.532.071.625.625,0,0,0-.312.448.614.614,0,0,0,.087.536.866.866,0,0,0,.448.291q.149.043.384.1c.15.035.283.062.4.08a.914.914,0,0,0,.528-.07.607.607,0,0,0,.3-.441A.607.607,0,0,0-376.455,407.025Zm3.689,2.351a.179.179,0,0,1-.15.023.158.158,0,0,1-.094-.06l-5.054-6.058a.569.569,0,0,1-.111-.169.374.374,0,0,1,0-.182l.071-.312a.2.2,0,0,1,.086-.133.193.193,0,0,1,.149-.022.167.167,0,0,1,.1.062l5.057,6.05a.555.555,0,0,1,.11.168.386.386,0,0,1,0,.192l-.071.312A.213.213,0,0,1-372.765,409.375Zm.565-3.544a1.383,1.383,0,0,1-1.007.179c-.109-.018-.246-.047-.417-.085s-.329-.078-.441-.111a1.422,1.422,0,0,1-.84-.594,1.361,1.361,0,0,1-.121-1.055,1.373,1.373,0,0,1,.57-.906,1.438,1.438,0,0,1,1.015-.168c.23.041.379.066.447.083s.2.052.411.114a1.382,1.382,0,0,1,.829.606,1.384,1.384,0,0,1,.12,1.05A1.357,1.357,0,0,1-372.2,405.831Zm-.14-1.569a.929.929,0,0,0-.438-.295c-.222-.064-.354-.1-.391-.109-.056-.013-.186-.037-.389-.07a.879.879,0,0,0-.533.066.624.624,0,0,0-.312.453.608.608,0,0,0,.086.536.863.863,0,0,0,.448.291c.1.028.227.062.384.1s.284.062.4.081a.929.929,0,0,0,.523-.073.6.6,0,0,0,.309-.441A.606.606,0,0,0-372.34,404.262Z" transform="translate(379.771 -376.655)" fill="#1a4d38"/>
          <path id="Path_31928" data-name="Path 31928" d="M-371.058,401.391a2.768,2.768,0,0,1-2.1-.308c-.173-.087-.414-.214-.727-.382s-.547-.3-.709-.395a2.747,2.747,0,0,1-1.388-1.608,2.685,2.685,0,0,1,.321-2.025,2.678,2.678,0,0,1,1.515-1.369,2.735,2.735,0,0,1,2.106.283c.335.167.575.291.722.371s.379.213.713.406a2.759,2.759,0,0,1,1.409,1.592,2.7,2.7,0,0,1-.344,2.028A2.717,2.717,0,0,1-371.058,401.391Zm.963-3.089a2.082,2.082,0,0,0-1.016-1.109q-.5-.294-.671-.385c-.123-.068-.354-.184-.689-.352a2.067,2.067,0,0,0-1.486-.238,1.633,1.633,0,0,0-.986.846,1.644,1.644,0,0,0-.173,1.3,2.061,2.061,0,0,0,1.011,1.114c.161.094.387.22.675.377s.512.272.685.36a2.074,2.074,0,0,0,1.486.238,1.649,1.649,0,0,0,.991-.855A1.633,1.633,0,0,0-370.095,398.3Z" transform="translate(380.422 -378.164)" fill="#1a4d38"/>
          <path id="Path_31929" data-name="Path 31929" d="M-368.468,397.3a.21.21,0,0,1-.164-.046l-3.653-2.75a.231.231,0,0,1-.093-.149.211.211,0,0,1,.041-.168l.268-.355a.214.214,0,0,1,.153-.089.215.215,0,0,1,.172.045l.341.255a1.448,1.448,0,0,1,.289-1.476l.226-.3a.209.209,0,0,1,.146-.089.218.218,0,0,1,.165.046l.316.237a.2.2,0,0,1,.085.144.222.222,0,0,1-.05.163l-.348.463a1.105,1.105,0,0,0-.251.84,1.129,1.129,0,0,0,.481.737l2.27,1.708a.208.208,0,0,1,.086.151.226.226,0,0,1-.048.168l-.285.379A.212.212,0,0,1-368.468,397.3Z" transform="translate(381.188 -378.793)" fill="#1a4d38"/>
          <path id="Path_31930" data-name="Path 31930" d="M-365.08,396.156a1.762,1.762,0,0,1-.912.063,1.4,1.4,0,0,1-.588-.271.188.188,0,0,1-.074-.159.227.227,0,0,1,.065-.161l.326-.331a.233.233,0,0,1,.133-.071.317.317,0,0,1,.181.044,1.321,1.321,0,0,0,.65.106,1.252,1.252,0,0,0,.742-.428,1.542,1.542,0,0,0,.527-.963,1.407,1.407,0,0,0-.528-1l-.466-.463a1.813,1.813,0,0,1-.088.809,2.089,2.089,0,0,1-.513.786,1.821,1.821,0,0,1-1.541.627,2.752,2.752,0,0,1-1.555-.785l-.2-.184-.179-.191a2.76,2.76,0,0,1-.8-1.551,1.813,1.813,0,0,1,.605-1.55,1.878,1.878,0,0,1,1.644-.6l-.295-.292a.231.231,0,0,1-.073-.161.2.2,0,0,1,.064-.161l.313-.317a.222.222,0,0,1,.163-.068.22.22,0,0,1,.166.066l3.328,3.3a1.989,1.989,0,0,1-.013,3.183A2.626,2.626,0,0,1-365.08,396.156Zm-.567-3.732a1.8,1.8,0,0,0-.476-.989c-.037-.045-.115-.124-.234-.245s-.195-.186-.239-.225a1.821,1.821,0,0,0-.989-.469,1.179,1.179,0,0,0-1.014.4,1.15,1.15,0,0,0-.4,1.007,2.017,2.017,0,0,0,.559,1.028l.172.185.192.176a2.013,2.013,0,0,0,1.03.545,1.138,1.138,0,0,0,1.006-.4A1.186,1.186,0,0,0-365.647,392.424Z" transform="translate(381.702 -379.477)" fill="#1a4d38"/>
          <path id="Path_31931" data-name="Path 31931" d="M-363.413,391.729a1.63,1.63,0,0,1-.829-.05,1.25,1.25,0,0,1-.626-.458,1.275,1.275,0,0,1-.19-1.159,2.948,2.948,0,0,1,.838-1.272l1.046-1.011-.165-.226q-.578-.8-1.493-.134a1.238,1.238,0,0,0-.458.554,1.21,1.21,0,0,0-.082.579.3.3,0,0,1,.016.144.178.178,0,0,1-.076.1l-.336.244a.2.2,0,0,1-.158.036.2.2,0,0,1-.139-.083,1.031,1.031,0,0,1-.133-.555,1.679,1.679,0,0,1,.219-.792,2.385,2.385,0,0,1,.74-.8,2.051,2.051,0,0,1,1.557-.5,1.779,1.779,0,0,1,1.123.743l1.84,2.534a.216.216,0,0,1,.043.165.223.223,0,0,1-.092.144l-.361.261a.215.215,0,0,1-.166.044.218.218,0,0,1-.144-.093l-.244-.335a1.662,1.662,0,0,1-.194.785,2.217,2.217,0,0,1-.711.779A2.01,2.01,0,0,1-363.413,391.729Zm1.155-2a1.625,1.625,0,0,0-.37-1.195l-.159-.219-.811.791a2.6,2.6,0,0,0-.646.87.668.668,0,0,0,.057.669.665.665,0,0,0,.608.293,1.341,1.341,0,0,0,.731-.274A1.367,1.367,0,0,0-362.258,389.726Z" transform="translate(382.474 -380.012)" fill="#1a4d38"/>
          <path id="Path_31932" data-name="Path 31932" d="M-360.351,389.635a.226.226,0,0,1-.128-.114l-2.061-4.092a.22.22,0,0,1-.016-.172.213.213,0,0,1,.115-.128l.4-.2a.215.215,0,0,1,.172-.014.215.215,0,0,1,.128.114l.191.38a1.972,1.972,0,0,1,.343-.791,2.088,2.088,0,0,1,.763-.6,1.816,1.816,0,0,1,1.557-.12,2.322,2.322,0,0,1,1.173,1.18l1.226,2.432a.221.221,0,0,1,.016.172.211.211,0,0,1-.114.128l-.432.217a.228.228,0,0,1-.17.017.219.219,0,0,1-.128-.116l-1.2-2.391a1.56,1.56,0,0,0-.776-.8,1.223,1.223,0,0,0-1.029.1,1.264,1.264,0,0,0-.691.776,1.491,1.491,0,0,0,.157,1.107l1.2,2.391a.216.216,0,0,1,.016.17.219.219,0,0,1-.114.128l-.432.216A.208.208,0,0,1-360.351,389.635Z" transform="translate(383.23 -380.542)" fill="#1a4d38"/>
          <path id="Path_31933" data-name="Path 31933" d="M-358.171,382.232a.219.219,0,0,1-.112-.128l-.178-.492a.237.237,0,0,1,0-.175.208.208,0,0,1,.128-.118l.571-.208a.241.241,0,0,1,.179.007.233.233,0,0,1,.118.133l.178.49a.206.206,0,0,1-.01.172.227.227,0,0,1-.132.116l-.574.208A.211.211,0,0,1-358.171,382.232Zm2.1,5.58a.205.205,0,0,1-.114-.127l-1.558-4.309a.212.212,0,0,1,0-.172.224.224,0,0,1,.128-.112l.437-.158a.219.219,0,0,1,.17,0,.216.216,0,0,1,.114.129l1.558,4.308a.213.213,0,0,1,0,.17.212.212,0,0,1-.128.112l-.437.159A.209.209,0,0,1-356.069,387.812Z" transform="translate(384.08 -381.098)" fill="#1a4d38"/>
          <path id="Path_31934" data-name="Path 31934" d="M-354.41,386.5a2.345,2.345,0,0,1-.987-1.45l-.1-.372-.082-.379a2.343,2.343,0,0,1,.226-1.737,2.182,2.182,0,0,1,1.438-.946,2.533,2.533,0,0,1,1.2-.031,1.847,1.847,0,0,1,.844.435,1.5,1.5,0,0,1,.42.655.166.166,0,0,1-.021.163.247.247,0,0,1-.146.1l-.451.108a.224.224,0,0,1-.151,0,.374.374,0,0,1-.129-.127,1.257,1.257,0,0,0-.606-.535,1.32,1.32,0,0,0-.779-.017,1.25,1.25,0,0,0-.838.582,1.7,1.7,0,0,0-.106,1.195l.071.339.086.319a1.712,1.712,0,0,0,.632,1.02,1.25,1.25,0,0,0,1.016.135,1.334,1.334,0,0,0,.687-.37,1.262,1.262,0,0,0,.3-.75.483.483,0,0,1,.057-.18.213.213,0,0,1,.13-.075l.452-.108a.223.223,0,0,1,.174.023.182.182,0,0,1,.094.141,1.527,1.527,0,0,1-.08.769,1.824,1.824,0,0,1-.55.772,2.5,2.5,0,0,1-1.093.521A2.191,2.191,0,0,1-354.41,386.5Z" transform="translate(384.669 -381.009)" fill="#1a4d38"/>
        </g>
      </g>
      <circle id="Ellipse_309" data-name="Ellipse 309" cx="1" cy="1" r="1" transform="translate(-346.484 375.522)" fill="#1a4d38"/>
      <circle id="Ellipse_310" data-name="Ellipse 310" cx="1" cy="1" r="1" transform="translate(-378.439 427.337)" fill="#1a4d38"/>
      <circle id="Ellipse_311" data-name="Ellipse 311" cx="1" cy="1" r="1" transform="translate(-318.686 428.929)" fill="#1a4d38"/>
    </g>
  </g>
</svg>
