<svg xmlns="http://www.w3.org/2000/svg" width="54" height="54" viewBox="0 0 54 54">
  <g id="Group_8875" data-name="Group 8875" transform="translate(-289 -341.999)">
    <circle id="Ellipse_314" data-name="Ellipse 314" cx="27" cy="27" r="27" transform="translate(289 341.999)" fill="#e7b465"/>
    <path id="grain" d="M13.686,36.294a.6.6,0,0,0,.867,0l1.981-1.981a6.537,6.537,0,0,0,8.852-.371.6.6,0,0,0,0-.867,6.559,6.559,0,0,0-4.643-1.919,5.451,5.451,0,0,0-1.052.124l1.3-1.3A6.724,6.724,0,0,0,25.2,31.466a6.409,6.409,0,0,0,4.643-1.919.6.6,0,0,0,0-.867,6.713,6.713,0,0,0-5.757-1.857l1.362-1.362A6.537,6.537,0,0,0,34.3,25.09a.6.6,0,0,0,0-.867,6.713,6.713,0,0,0-5.757-1.857l1.114-1.114a6.954,6.954,0,0,0,6.685-6.933.585.585,0,0,0-.619-.619,6.913,6.913,0,0,0-6.933,6.685L27.675,21.5a6.535,6.535,0,0,0-1.857-5.757.6.6,0,0,0-.867,0,6.537,6.537,0,0,0-.371,8.852l-1.362,1.362A6.535,6.535,0,0,0,21.361,20.2a.6.6,0,0,0-.867,0,6.64,6.64,0,0,0-.433,8.852l-1.3,1.3a6.893,6.893,0,0,0,.124-1.052,6.559,6.559,0,0,0-1.919-4.643.6.6,0,0,0-.867,0,6.64,6.64,0,0,0-.433,8.852l-1.981,1.981a.528.528,0,0,0,0,.8Zm2.847-10.337a5.258,5.258,0,0,1,1.114,3.281,5.134,5.134,0,0,1-1.114,3.281,5.258,5.258,0,0,1-1.114-3.281A4.806,4.806,0,0,1,16.533,25.956Zm7.49,7.49a5.478,5.478,0,0,1-6.623,0,5.258,5.258,0,0,1,3.281-1.114A5.185,5.185,0,0,1,24.023,33.446ZM28.48,28.99a5.478,5.478,0,0,1-6.623,0A5.478,5.478,0,0,1,28.48,28.99ZM33,24.533a5.258,5.258,0,0,1-3.281,1.114,5.134,5.134,0,0,1-3.281-1.114A5.387,5.387,0,0,1,33,24.533Zm2.167-9.718a5.662,5.662,0,0,1-5.014,5.014,5.662,5.662,0,0,1,5.014-5.014Zm-9.718,2.167a5.478,5.478,0,0,1,0,6.623,5.478,5.478,0,0,1,0-6.623ZM20.99,21.5a5.478,5.478,0,0,1,0,6.623A5.3,5.3,0,0,1,20.99,21.5Z" transform="translate(285.128 351.751) rotate(-16)" fill="#12402d"/>
  </g>
</svg>
